<?xml version="1.0" encoding="UTF-8" standalone="no"?>
<svg
   xmlns:dc="http://purl.org/dc/elements/1.1/"
   xmlns:cc="http://creativecommons.org/ns#"
   xmlns:rdf="http://www.w3.org/1999/02/22-rdf-syntax-ns#"
   xmlns:svg="http://www.w3.org/2000/svg"
   xmlns="http://www.w3.org/2000/svg"
   width="1336"
   height="1329"
   viewBox="0 0 1336 1329"
   fill="none"
   version="1.1"
   id="svg36">
   <style>
    #g57, #g63 {
      transform-origin: 50% 50%;
      animation: spin-in 1s infinite linear;
    }
      @keyframes spin-in {
        0% {transform: rotate(20deg) scale(1.2);}
        50% {transform: rotate(0deg) scale(1);}
      }

    #path20 {
      transform-origin: 50% 50%;
      animation: spin-out 1s infinite linear;
    }
      @keyframes spin-out {
        0% {transform: rotate(5deg) scale(0.95);}
        40% {transform: rotate(0deg) scale(1);}
      }
   </style>
  <g
     id="g63">
    <path
       d="m 1330.75,669.747 c 4.44,0 6.88,-5.265 4,-8.607 -0.98,-1.144 -2.4,-1.862 -4,-1.862 h -10.47 c -4.44,0 -6.88,5.265 -4,8.607 0.98,1.145 2.4,1.862 4,1.862 z M 989.756,659.278 c -4.44,0 -6.882,5.265 -3.998,8.607 0.977,1.145 2.396,1.862 3.998,1.862 h 5.952 c 4.442,0 6.882,-5.265 3.998,-8.607 -0.977,-1.144 -2.396,-1.862 -3.998,-1.862 z m 37.354,0 c -4.44,0 -6.88,5.265 -3.99,8.607 0.97,1.145 2.39,1.862 3.99,1.862 h 10.47 c 4.44,0 6.88,-5.265 4,-8.607 -0.98,-1.144 -2.4,-1.862 -4,-1.862 z m 41.88,0 c -4.44,0 -6.88,5.265 -4,8.607 0.98,1.145 2.4,1.862 4,1.862 h 10.47 c 4.44,0 6.88,-5.265 4,-8.607 -0.98,-1.144 -2.4,-1.862 -4,-1.862 z m 41.87,0 c -4.44,0 -6.88,5.265 -4,8.607 0.98,1.145 2.4,1.862 4,1.862 h 10.47 c 4.44,0 6.88,-5.265 4,-8.607 -0.98,-1.144 -2.4,-1.862 -4,-1.862 z m 41.88,0 c -4.44,0 -6.89,5.265 -4,8.607 0.98,1.145 2.39,1.862 4,1.862 h 10.47 c 4.44,0 6.88,-5.265 3.99,-8.607 -0.97,-1.144 -2.39,-1.862 -3.99,-1.862 z m 41.87,0 c -4.44,0 -6.88,5.265 -4,8.607 0.98,1.145 2.4,1.862 4,1.862 h 10.47 c 4.44,0 6.88,-5.265 4,-8.607 -0.98,-1.144 -2.4,-1.862 -4,-1.862 z m 41.88,0 c -4.44,0 -6.89,5.265 -4,8.607 0.97,1.145 2.39,1.862 4,1.862 h 10.46 c 4.45,0 6.89,-5.265 4,-8.607 -0.97,-1.144 -2.39,-1.862 -4,-1.862 z m 41.87,0 c -4.44,0 -6.88,5.265 -4,8.607 0.98,1.145 2.4,1.862 4,1.862 h 10.47 c 4.44,0 6.88,-5.265 4,-8.607 -0.98,-1.144 -2.4,-1.862 -4,-1.862 z"
       fill="#252b47"
       id="path2" />
    <path
       d="m 666.252,1323.79 c 0,6.15 9.096,7.42 10.408,0.8 l 0.061,-0.8 v -10.47 c 0,-6.15 -9.095,-7.41 -10.408,-0.79 l -0.061,0.79 z m 10.469,-429.286 c 0,-6.15 -9.095,-7.417 -10.408,-0.794 l -0.061,0.794 v 10.469 c 0,6.15 9.096,7.417 10.408,0.793 l 0.061,-0.793 z m 0,41.876 c 0,-6.15 -9.095,-7.417 -10.408,-0.794 l -0.061,0.794 v 10.469 c 0,6.15 9.096,7.416 10.408,0.793 l 0.061,-0.793 z m 0,41.876 c 0,-6.151 -9.095,-7.417 -10.408,-0.794 l -0.061,0.794 v 10.468 c 0,6.151 9.096,7.417 10.408,0.794 l 0.061,-0.794 z m 0,41.874 c 0,-6.15 -9.095,-7.42 -10.408,-0.79 l -0.061,0.79 v 10.47 c 0,6.15 9.096,7.42 10.408,0.79 l 0.061,-0.79 z m 0,41.88 c 0,-6.15 -9.095,-7.42 -10.408,-0.8 l -0.061,0.8 v 10.47 c 0,6.15 9.096,7.41 10.408,0.79 l 0.061,-0.79 z m 0,41.87 c 0,-6.15 -9.095,-7.41 -10.408,-0.79 l -0.061,0.79 v 10.47 c 0,6.15 9.096,7.42 10.408,0.8 l 0.061,-0.8 z m 0,41.88 c 0,-6.15 -9.095,-7.42 -10.408,-0.79 l -0.061,0.79 v 10.47 c 0,6.15 9.096,7.41 10.408,0.79 l 0.061,-0.79 z m 0,41.87 c 0,-6.15 -9.095,-7.41 -10.408,-0.79 l -0.061,0.79 v 10.47 c 0,6.15 9.096,7.42 10.408,0.8 l 0.061,-0.8 z m 0,41.88 c 0,-6.15 -9.095,-7.42 -10.408,-0.79 l -0.061,0.79 v 10.47 c 0,6.15 9.096,7.42 10.408,0.79 l 0.061,-0.79 z m 0,41.88 c 0,-6.15 -9.095,-7.42 -10.408,-0.8 l -0.061,0.8 v 10.47 c 0,6.15 9.096,7.41 10.408,0.79 l 0.061,-0.79 z"
       fill="#252b47"
       id="path4" />
    <path
       d="m 5.24587,659.278 c -4.440769,0 -6.88243,5.265 -3.99822,8.607 0.97667,1.145 2.39588,1.862 3.99822,1.862 H 15.7145 c 4.4408,0 6.8824,-5.265 3.9982,-8.607 -0.9767,-1.144 -2.3959,-1.862 -3.9982,-1.862 z M 308.882,669.747 c 4.44,0 6.882,-5.265 3.998,-8.607 -0.977,-1.144 -2.396,-1.862 -3.998,-1.862 h -10.469 c -4.441,0 -6.882,5.265 -3.998,8.607 0.976,1.145 2.396,1.862 3.998,1.862 z m -41.875,0 c 4.441,0 6.883,-5.265 3.998,-8.607 -0.976,-1.144 -2.396,-1.862 -3.998,-1.862 h -10.469 c -4.44,0 -6.882,5.265 -3.998,8.607 0.977,1.145 2.396,1.862 3.998,1.862 z m -41.874,0 c 4.44,0 6.882,-5.265 3.998,-8.607 -0.977,-1.144 -2.396,-1.862 -3.998,-1.862 h -10.469 c -4.441,0 -6.882,5.265 -3.998,8.607 0.976,1.145 2.396,1.862 3.998,1.862 z m -41.875,0 c 4.441,0 6.883,-5.265 3.998,-8.607 -0.976,-1.144 -2.396,-1.862 -3.998,-1.862 H 172.79 c -4.441,0 -6.883,5.265 -3.999,8.607 0.977,1.145 2.396,1.862 3.999,1.862 z m -41.874,0 c 4.44,0 6.882,-5.265 3.998,-8.607 -0.977,-1.144 -2.396,-1.862 -3.998,-1.862 h -10.469 c -4.441,0 -6.882,5.265 -3.998,8.607 0.977,1.145 2.396,1.862 3.998,1.862 z m -41.8748,0 c 4.4408,0 6.8828,-5.265 3.9978,-8.607 -0.976,-1.144 -2.395,-1.862 -3.9978,-1.862 H 89.0406 c -4.4408,0 -6.8824,5.265 -3.9982,8.607 0.9766,1.145 2.3959,1.862 3.9982,1.862 z m -41.8745,0 c 4.4408,0 6.8825,-5.265 3.9983,-8.607 -0.9767,-1.144 -2.3959,-1.862 -3.9983,-1.862 H 47.1661 c -4.4407,0 -6.8824,5.265 -3.9982,8.607 0.9767,1.145 2.3959,1.862 3.9982,1.862 z"
       fill="#252b47"
       id="path6" />
    <path
       d="m 676.721,5.22556 c 0,-6.150132 -9.095,-7.41678 -10.408,-0.79357 l -0.061,0.79357 V 15.6945 c 0,6.1501 9.096,7.4168 10.408,0.7936 l 0.061,-0.7936 z M 666.252,350.762 c 0,6.15 9.096,7.417 10.408,0.794 l 0.061,-0.794 v -10.469 c 0,-6.15 -9.095,-7.417 -10.408,-0.793 l -0.061,0.793 z m 0,-41.876 c 0,6.15 9.096,7.417 10.408,0.794 l 0.061,-0.794 v -10.469 c 0,-6.15 -9.095,-7.416 -10.408,-0.793 l -0.061,0.793 z m 0,-41.876 c 0,6.151 9.096,7.417 10.408,0.794 l 0.061,-0.794 v -10.468 c 0,-6.151 -9.095,-7.417 -10.408,-0.794 l -0.061,0.794 z m 0,-41.875 c 0,6.15 9.096,7.416 10.408,0.793 l 0.061,-0.793 v -10.469 c 0,-6.15 -9.095,-7.417 -10.408,-0.794 l -0.061,0.794 z m 0,-41.876 c 0,6.15 9.096,7.417 10.408,0.793 l 0.061,-0.793 V 172.79 c 0,-6.15 -9.095,-7.417 -10.408,-0.794 l -0.061,0.794 z m 0,-41.876 c 0,6.15 9.096,7.417 10.408,0.794 l 0.061,-0.794 v -10.469 c 0,-6.15 -9.095,-7.417 -10.408,-0.794 l -0.061,0.794 z m 0,-41.8758 c 0,6.1498 9.096,7.4168 10.408,0.7938 l 0.061,-0.7938 v -10.469 c 0,-6.1501 -9.095,-7.4167 -10.408,-0.7935 l -0.061,0.7935 z m 0,-41.8758 c 0,6.1501 9.096,7.4167 10.408,0.7935 l 0.061,-0.7935 v -10.469 c 0,-6.1501 -9.095,-7.4168 -10.408,-0.7935 l -0.061,0.7935 z"
       fill="#252b47"
       id="path8" />
  </g>
  <g
     id="g57">
    <path
       d="m 673.345,140.332 c 140.197,0 267.133,56.831 359.015,148.717 91.88,91.885 148.71,218.825 148.71,359.027 0,140.201 -56.83,267.141 -148.71,359.024 -91.882,91.89 -218.818,148.72 -359.015,148.72 -140.197,0 -267.133,-56.83 -359.015,-148.72 -91.883,-91.883 -148.713,-218.823 -148.713,-359.024 0,-140.202 56.83,-267.142 148.713,-359.027 91.882,-91.886 218.818,-148.717 359.015,-148.717 z M 1011.38,310.017 C 924.866,223.503 805.347,169.999 673.345,169.999 c -132.017,0 -251.537,53.504 -338.032,140.018 -86.512,86.514 -140.014,206.037 -140.014,338.044 0,132.021 53.502,251.544 140.014,338.043 86.511,86.516 206.03,140.016 338.032,140.016 132.002,0 251.537,-53.5 338.035,-140.016 86.51,-86.514 140.01,-206.037 140.01,-338.043 0,-132.007 -53.5,-251.545 -140.01,-338.044 z"
       fill="#252b47"
       id="path10" />
    <path
       fill-rule="evenodd"
       clip-rule="evenodd"
       d="m 109.809,414.215 c 2.518,-6.227 9.675,-9.248 15.901,-6.73 l 171.435,69.482 c 6.226,2.519 9.263,9.676 6.73,15.902 -2.518,6.227 -9.675,9.264 -15.901,6.73 L 116.539,430.117 c -6.227,-2.518 -9.248,-9.676 -6.73,-15.902 z"
       fill="#252b47"
       id="path12" />
    <path
       fill-rule="evenodd"
       clip-rule="evenodd"
       d="m 516.557,1235.88 c 6.485,1.73 13.215,-2.17 14.94,-8.65 l 47.643,-178.75 c 1.724,-6.49 -2.167,-13.22 -8.653,-14.94 -6.486,-1.73 -13.216,2.16 -14.94,8.65 l -47.643,178.75 c -1.724,6.49 2.167,13.22 8.653,14.94 z"
       fill="#252b47"
       id="path14" />
    <path
       fill-rule="evenodd"
       clip-rule="evenodd"
       d="m 831.882,60.5735 c 6.486,1.7245 10.393,8.4545 8.653,14.9404 L 792.892,254.264 c -1.724,6.486 -8.454,10.393 -14.94,8.653 -6.486,-1.724 -10.392,-8.454 -8.653,-14.955 L 816.942,69.2111 c 1.725,-6.4858 8.455,-10.3773 14.94,-8.6529 z"
       fill="#252b47"
       id="path16" />
    <path
       fill-rule="evenodd"
       clip-rule="evenodd"
       d="m 1239.81,870.972 c 2.52,-6.227 -0.5,-13.384 -6.73,-15.902 l -171.44,-69.483 c -6.22,-2.518 -13.38,0.504 -15.9,6.73 -2.52,6.227 0.51,13.384 6.73,15.902 l 171.44,69.483 c 6.22,2.518 13.38,-0.504 15.9,-6.73 z"
       fill="#252b47"
       id="path18" />
  </g>
  <path
     fill-rule="evenodd"
     clip-rule="evenodd"
     d="m 850.349,844.57 c 16.42,21.517 147.278,10.163 154.021,-26.554 -1.02,-84.439 -5.583,-169.61 -49.792,-243.991 C 918.38,513.104 780.67,440.843 733.821,426.3 c -7.447,-30.202 -21.883,-53.902 -44.82,-69.712 -28.155,-13.46 -59.805,-15.856 -94.599,-8.302 -29.406,13.796 -51.763,46.073 -56.814,73.13 18.114,-2.838 37.449,-2.869 53.487,1.557 -30.154,2.518 -60.98,9.141 -94.187,33.192 -57.531,41.662 -77.095,122.743 -85.061,190.883 -40.852,6.99 -68.382,-1.572 -73.036,-43.158 -3.113,-27.912 8.424,-50.299 41.508,-66.949 5.616,-2.823 20.327,-13.597 18.236,-21.838 -40.272,-1.221 -110.164,22.189 -117.84,88.803 -11.186,96.998 58.188,109.893 116.177,109.558 -8.317,66.888 14.177,102.354 49.886,154.745 6.287,9.217 46.727,-3.51 47.216,-14.498 2.243,-49.339 -26.843,-73.939 -9.95,-120.347 14.268,-39.206 40.638,-34.963 56.433,-92.954 -9.019,60.845 -7.615,147.221 -5.692,199.795 11.598,17.184 79.293,18.221 89.639,2.488 7.188,-24.891 4.136,-106.766 7.249,-133.503 0,35.97 7.569,134.281 7.569,170.235 11.247,32.186 163.576,33.376 190.877,-6.638 -0.504,-53.673 14.039,-120.164 2.457,-173.837 21.257,34.933 13.764,91.566 17.793,145.604 z"
     fill="url(#paint0_linear)"
     id="path20"
     style="fill:url(#paint0_linear)" />
  <defs
     id="defs34">
    <linearGradient
       id="paint0_linear"
       x1="855.553"
       y1="861.006"
       x2="428.308"
       y2="386.284"
       gradientUnits="userSpaceOnUse">
      <stop
         stop-color="#1F194D"
         id="stop24" />
      <stop
         offset="0.521569"
         stop-color="#145280"
         id="stop26" />
      <stop
         offset="1"
         stop-color="#098BB3"
         id="stop28" />
    </linearGradient>
    <clipPath
       id="clip0">
      <rect
         width="1336"
         height="1329"
         fill="white"
         id="rect31" />
    </clipPath>
  </defs>
</svg>
